<?xml version="1.0" encoding="UTF-8"?>
<svg id="Camada_1" data-name="Camada 1" xmlns="http://www.w3.org/2000/svg" viewBox="0 0 160 77.52">
  <defs>
    <style>
      .cls-3, .cls-4 {
        fill: #3f7f33;
      }

      .cls-4 {
        stroke: #badbba;
        stroke-miterlimit: 10;
        stroke-width: .75px;
      }

      .cls-5 {
        opacity: .19;
      }

      .cls-2 {
        font-family: RubikItalic-SemiBoldItalic, Rubik;
        font-size: 13.62px;
        font-style: italic;
        font-variation-settings: 'wght' 600;
        font-weight: 600;
      }

      .cls-6 {
        fill: #e64748;
      }
    </style>
  </defs>
  <path class="cls-3" d="M148.22,20.79c.57.81-.06,2.45-.06,3.52v40.68c0,2.76-2.28,4.39-5.02,4.39l-122.6.11c-.95,0-.08.58-.84.11-.31.64-3.18-.18-6.04-2.11,1.87,4.08,7.41,3.89,8.84,3.89h120.63c3.84,0,7.01-2.53,7.01-6.39,0,0-.06-30.57-.08-40.7,0-4.43-3.16-6.41-3.62-6.77-.79-.1,2.56,3.3,1.77,3.27Z"/>
  <g class="cls-5">
    <path class="cls-6" d="M26.43,63.9c-.25.02-.45-.04-.61-.2-.16-.16-.23-.38-.21-.65l2.91-24.43c.02-.28.13-.51.33-.7.19-.19.41-.3.66-.32l4.13-.38c.25-.02.45.04.61.2s.23.38.21.65l-2.43,20.34,11.43-1.06c.27-.02.48.04.63.2.15.16.21.38.19.65l-.38,3.16c-.02.28-.13.51-.31.7s-.41.3-.68.32l-16.48,1.52Z"/>
    <path class="cls-6" d="M47.92,61.92c-.25.02-.45-.04-.61-.2-.16-.16-.23-.38-.21-.65l2.87-24.43c.02-.28.14-.51.34-.7.2-.19.43-.3.68-.32l16.7-1.54c.27-.02.48.04.63.2.15.16.21.38.19.65l-.35,3.01c-.03.25-.14.47-.33.66-.19.19-.42.3-.69.32l-11.94,1.1-.72,5.9,11.13-1.03c.27-.02.48.04.63.2.15.16.21.38.19.65l-.34,2.78c-.03.25-.14.47-.33.66-.19.19-.42.3-.7.33l-11.09,1.03-.74,6.09,12.24-1.13c.27-.03.48.04.63.2.15.16.21.38.19.65l-.36,2.97c-.02.28-.13.51-.33.7-.19.19-.42.3-.7.32l-16.99,1.57Z"/>
    <path class="cls-6" d="M71.11,59.77c-.25.02-.45-.04-.61-.2-.16-.16-.23-.38-.21-.65l2.87-24.43c.02-.28.13-.51.33-.7s.42-.3.69-.32l3.32-.31c.37-.03.63.02.8.17.16.15.26.28.3.4l8.03,14.87,1.84-15.52c.02-.27.13-.51.33-.7.19-.19.42-.3.69-.32l3.72-.34c.27-.02.48.04.63.2.15.16.21.38.19.65l-2.87,24.43c-.03.25-.14.48-.33.68-.19.2-.41.32-.66.34l-3.35.31c-.37.03-.63-.03-.78-.19-.15-.16-.26-.29-.31-.38l-8.06-14.42-1.77,15.07c-.02.28-.13.51-.33.7-.19.19-.42.3-.69.32l-3.76.35Z"/>
    <path class="cls-6" d="M97.42,57.34c-.25.02-.45-.04-.61-.2-.16-.16-.23-.38-.21-.65l2.87-24.43c.02-.28.13-.51.33-.7.19-.19.41-.3.66-.32l3.98-.37c.27-.03.48.04.63.2.15.16.21.38.19.65l-1.01,8.38,8.14-9.27c.11-.16.28-.33.51-.51.23-.18.56-.29.97-.33l4.57-.42c.37-.03.61.1.72.4.11.3.07.56-.13.77l-10.73,12.63,8.69,11.13c.23.3.25.59.06.85-.19.27-.41.41-.68.43l-4.35.4c-.39.04-.7,0-.91-.14-.21-.13-.36-.28-.45-.44l-7.15-9-1.16,9.55c-.02.28-.12.51-.29.7-.17.19-.39.29-.66.32l-3.98.37Z"/>
    <path class="cls-6" d="M118.58,55.38c-.29.03-.51-.08-.64-.31-.13-.23-.14-.48-.01-.74l11.59-24.97c.12-.28.3-.54.53-.75s.55-.35.97-.39l4.94-.46c.39-.04.68.04.88.22.19.18.31.4.36.67l5.95,23.35c.08.34.04.62-.11.83-.15.21-.37.33-.64.35l-3.76.35c-.37.03-.64-.03-.8-.18-.16-.16-.28-.35-.35-.56l-1.11-3.95-10.39.96-2.09,4.36c-.11.18-.25.36-.43.54s-.44.28-.79.31l-4.09.38ZM127.94,44.81l7.63-.71-2.57-10.47-5.06,11.17Z"/>
  </g>
  <g>
    <path class="cls-6" d="M25.19,63.82c-.25.02-.45-.04-.61-.2-.16-.16-.23-.38-.21-.65l2.91-24.43c.02-.28.13-.51.33-.7.19-.19.41-.3.66-.32l4.13-.38c.25-.02.45.04.61.2s.23.38.21.65l-2.43,20.34,11.43-1.06c.27-.02.48.04.63.2.15.16.21.38.19.65l-.38,3.16c-.02.28-.13.51-.31.7s-.41.3-.68.32l-16.48,1.52Z"/>
    <path class="cls-6" d="M46.68,61.83c-.25.02-.45-.04-.61-.2-.16-.16-.23-.38-.21-.65l2.87-24.43c.02-.28.14-.51.34-.7.2-.19.43-.3.68-.32l16.7-1.54c.27-.02.48.04.63.2.15.16.21.38.19.65l-.35,3.01c-.03.25-.14.47-.33.66-.19.19-.42.3-.69.32l-11.94,1.1-.72,5.9,11.13-1.03c.27-.02.48.04.63.2.15.16.21.38.19.65l-.34,2.78c-.03.25-.14.47-.33.66-.19.19-.42.3-.7.33l-11.09,1.03-.74,6.09,12.24-1.13c.27-.03.48.04.63.2.15.16.21.38.19.65l-.36,2.97c-.02.28-.13.51-.33.7-.19.19-.42.3-.7.32l-16.99,1.57Z"/>
    <path class="cls-6" d="M69.86,59.69c-.25.02-.45-.04-.61-.2-.16-.16-.23-.38-.21-.65l2.87-24.43c.02-.28.13-.51.33-.7s.42-.3.69-.32l3.32-.31c.37-.03.63.02.8.17.16.15.26.28.3.4l8.03,14.87,1.84-15.52c.02-.27.13-.51.33-.7.19-.19.42-.3.69-.32l3.72-.34c.27-.02.48.04.63.2.15.16.21.38.19.65l-2.87,24.43c-.03.25-.14.48-.33.68-.19.2-.41.32-.66.34l-3.35.31c-.37.03-.63-.03-.78-.19-.15-.16-.26-.29-.31-.38l-8.06-14.42-1.77,15.07c-.02.28-.13.51-.33.7-.19.19-.42.3-.69.32l-3.76.35Z"/>
    <path class="cls-6" d="M96.18,57.25c-.25.02-.45-.04-.61-.2-.16-.16-.23-.38-.21-.65l2.87-24.43c.02-.28.13-.51.33-.7.19-.19.41-.3.66-.32l3.98-.37c.27-.03.48.04.63.2.15.16.21.38.19.65l-1.01,8.38,8.14-9.27c.11-.16.28-.33.51-.51.23-.18.56-.29.97-.33l4.57-.42c.37-.03.61.1.72.4.11.3.07.56-.13.77l-10.73,12.63,8.69,11.13c.23.3.25.59.06.85-.19.27-.41.41-.68.43l-4.35.4c-.39.04-.7,0-.91-.14-.21-.13-.36-.28-.45-.44l-7.15-9-1.16,9.55c-.02.28-.12.51-.29.7-.17.19-.39.29-.66.32l-3.98.37Z"/>
    <path class="cls-6" d="M117.34,55.3c-.29.03-.51-.08-.64-.31-.13-.23-.14-.48-.01-.74l11.59-24.97c.12-.28.3-.54.53-.75s.55-.35.97-.39l4.94-.46c.39-.04.68.04.88.22.19.18.31.4.36.67l5.95,23.35c.08.34.04.62-.11.83-.15.21-.37.33-.64.35l-3.76.35c-.37.03-.64-.03-.8-.18-.16-.16-.28-.35-.35-.56l-1.11-3.95-10.39.96-2.09,4.36c-.11.18-.25.36-.43.54s-.44.28-.79.31l-4.09.38ZM126.7,44.73l7.63-.71-2.57-10.47-5.06,11.17Z"/>
  </g>
  <path class="cls-3" d="M143.38,16.56l-116.03-.38c-.07.26-.17.51-.28.75l116.3.38c2.55,0,4.62,2.07,4.62,4.62v42.68c0,2.55-2.07,4.62-4.62,4.62l-125.02.26c-.35,0-.7-.1-1.04-.18-1.46-.36-3.48-2.71-3.73-4.7V28.21c-.25-.04-.5-.1-.75-.18v36.59c0,2.96,2.63,5.72,5.3,5.74,30.94.17,125.24-.36,125.24-.36,2.96,0,5.38-2.41,5.38-5.38V21.94c0-2.97-2.41-5.38-5.38-5.38Z"/>
  <polygon class="cls-3" points="20.14 15.75 28.59 4.25 28.94 18.52 42.92 23.54 29.1 28.72 29.01 43.27 20.32 31.71 6.06 36.06 14.33 24.22 5.81 12.09 20.14 15.75"/>
  <polygon class="cls-4" points="20.14 15.75 28.59 4.25 28.94 18.52 42.92 23.54 29.1 28.72 29.01 43.27 20.32 31.71 6.06 36.06 14.33 24.22 5.81 12.09 20.14 15.75"/>
  <text class="cls-2" transform="translate(18.12 29.76) rotate(-17.78)"><tspan x="0" y="0">€</tspan></text>
</svg>
